<?xml version="1.0" standalone="no"?>
<!DOCTYPE svg PUBLIC "-//W3C//DTD SVG 20010904//EN"
 "http://www.w3.org/TR/2001/REC-SVG-20010904/DTD/svg10.dtd">
<svg version="1.0" xmlns="http://www.w3.org/2000/svg"
 width="700.000000pt" height="700.000000pt" viewBox="0 0 700.000000 700.000000"
 preserveAspectRatio="xMidYMid meet">
<metadata>
Created by potrace 1.14, written by Peter Selinger 2001-2017
</metadata>
<g transform="translate(0.000000,700.000000) scale(0.100000,-0.100000)"
fill="#000000" stroke="none">
<path d="M6729 6996 c-2 -2 -29 -7 -59 -10 -64 -8 -203 -30 -310 -51 -41 -8
-88 -17 -105 -20 -58 -10 -332 -76 -480 -116 -317 -85 -785 -243 -1036 -349
-223 -95 -584 -275 -742 -371 -26 -16 -49 -29 -52 -29 -15 0 -372 -233 -540
-354 -239 -171 -413 -310 -664 -531 -266 -233 -569 -539 -838 -845 -230 -262
-543 -661 -722 -920 -300 -434 -537 -820 -763 -1240 -54 -99 -288 -566 -288
-573 0 -3 -20 -47 -44 -98 -77 -163 -84 -184 -82 -235 3 -91 66 -172 150 -195
34 -9 117 -7 206 6 14 2 59 6 100 10 41 4 86 8 100 10 14 2 63 6 110 10 47 4
96 8 110 10 14 2 57 6 95 10 39 3 86 8 105 10 19 2 63 7 97 10 l63 6 -5 -58
c-3 -32 -7 -71 -9 -88 -3 -16 -8 -66 -11 -110 -4 -44 -8 -91 -10 -105 -2 -14
-7 -61 -11 -105 -3 -44 -8 -91 -9 -105 -1 -14 -6 -61 -10 -105 -4 -44 -8 -91
-10 -105 -23 -160 -14 -225 42 -289 39 -46 115 -76 172 -68 49 7 176 65 563
258 543 271 1078 586 1545 909 127 88 545 399 603 448 14 12 75 62 135 113
135 112 194 162 227 191 14 13 67 61 119 108 169 152 522 511 671 680 31 36
68 79 83 95 14 17 52 62 83 100 31 39 59 72 62 75 35 33 284 366 393 526 73
108 277 429 277 438 0 2 17 33 39 67 112 186 281 526 395 798 125 298 285 768
341 1001 2 8 15 62 29 120 26 105 100 469 111 545 9 66 26 168 31 195 3 14 7
58 9 99 3 58 0 81 -15 110 -40 78 -94 113 -186 117 -34 2 -63 2 -65 0z m-183
-483 c-12 -87 -85 -413 -131 -588 -44 -166 -185 -619 -204 -650 -3 -5 -6 -14
-7 -20 -2 -10 -107 -278 -129 -330 -366 -839 -782 -1483 -1317 -2039 l-58 -60
0 1576 0 1576 53 22 c28 12 79 35 112 50 33 15 110 46 170 70 61 23 124 48
140 55 45 19 406 140 510 171 184 54 472 130 562 149 10 2 39 8 66 14 26 6 64
14 85 17 20 3 53 9 72 14 19 4 46 8 58 9 22 1 23 -2 18 -36z m-2293 -4112
c-21 -19 -56 -50 -78 -70 -81 -75 -314 -271 -440 -372 -146 -116 -494 -381
-496 -377 -4 10 -3 3481 1 3487 5 7 183 149 231 184 254 184 419 291 669 433
l145 83 3 -1667 2 -1667 -37 -34z m-1429 592 c-1 -934 -2 -1701 -3 -1705 0 -5
-6 -8 -11 -8 -6 0 -32 -15 -58 -33 -105 -73 -671 -417 -687 -417 -2 0 -32 -16
-67 -36 -105 -60 -486 -254 -498 -254 -6 0 -9 3 -7 8 3 4 8 45 11 92 4 47 9
99 11 115 4 28 12 115 21 215 2 25 6 63 8 85 3 22 8 73 11 114 4 41 9 84 11
95 9 45 5 143 -6 171 -35 91 -107 138 -209 136 -36 -1 -75 -3 -86 -5 -11 -2
-54 -7 -95 -11 -41 -3 -86 -8 -100 -10 -14 -2 -63 -7 -110 -10 -47 -3 -96 -8
-110 -10 -29 -4 -99 -11 -215 -21 -44 -3 -83 -8 -88 -11 -4 -2 -7 0 -7 6 0 15
130 272 225 446 118 215 132 239 198 350 33 55 67 114 77 130 16 28 42 70 164
260 97 152 280 421 385 565 119 164 286 385 301 400 3 3 21 25 40 50 19 25 37
47 40 50 3 3 24 27 45 55 45 56 47 58 181 215 54 63 134 155 178 205 45 49 86
95 91 101 49 56 349 364 354 364 4 0 6 -764 5 -1697z"/>
</g>
</svg>
